<svg width="64" height="64" viewBox="0 0 64 64" fill="none" xmlns="http://www.w3.org/2000/svg">
<path d="M0 15C0 6.71573 6.71573 0 15 0H49C57.2843 0 64 6.71573 64 15V49C64 57.2843 57.2843 64 49 64H15C6.71573 64 0 57.2843 0 49V15Z" fill="#385BD3"/>
<path d="M20.1328 38H18.0938V36.7812C17.7552 37.2552 17.3542 37.6094 16.8906 37.8438C16.4323 38.0729 15.9688 38.1875 15.5 38.1875C14.5469 38.1875 13.7292 37.8047 13.0469 37.0391C12.3698 36.2682 12.0312 35.1953 12.0312 33.8203C12.0312 32.4141 12.362 31.3464 13.0234 30.6172C13.6849 29.8828 14.5208 29.5156 15.5312 29.5156C16.4583 29.5156 17.2604 29.901 17.9375 30.6719V26.5469H20.1328V38ZM14.2734 33.6719C14.2734 34.5573 14.3958 35.1979 14.6406 35.5938C14.9948 36.1667 15.4896 36.4531 16.125 36.4531C16.6302 36.4531 17.0599 36.2396 17.4141 35.8125C17.7682 35.3802 17.9453 34.737 17.9453 33.8828C17.9453 32.9297 17.7734 32.2448 17.4297 31.8281C17.0859 31.4062 16.6458 31.1953 16.1094 31.1953C15.5885 31.1953 15.151 31.4036 14.7969 31.8203C14.4479 32.2318 14.2734 32.849 14.2734 33.6719ZM26.1094 35.3594L28.2969 35.7266C28.0156 36.5286 27.5703 37.1406 26.9609 37.5625C26.3568 37.9792 25.599 38.1875 24.6875 38.1875C23.2448 38.1875 22.1771 37.7161 21.4844 36.7734C20.9375 36.0182 20.6641 35.0651 20.6641 33.9141C20.6641 32.5391 21.0234 31.4635 21.7422 30.6875C22.4609 29.9062 23.3698 29.5156 24.4688 29.5156C25.7031 29.5156 26.6771 29.9245 27.3906 30.7422C28.1042 31.5547 28.4453 32.8021 28.4141 34.4844H22.9141C22.9297 35.1354 23.1068 35.6432 23.4453 36.0078C23.7839 36.3672 24.2057 36.5469 24.7109 36.5469C25.0547 36.5469 25.3438 36.4531 25.5781 36.2656C25.8125 36.0781 25.9896 35.776 26.1094 35.3594ZM26.2344 33.1406C26.2188 32.5052 26.0547 32.0234 25.7422 31.6953C25.4297 31.362 25.0495 31.1953 24.6016 31.1953C24.1224 31.1953 23.7266 31.3698 23.4141 31.7188C23.1016 32.0677 22.9479 32.5417 22.9531 33.1406H26.2344ZM34.0156 35.3594L36.2031 35.7266C35.9219 36.5286 35.4766 37.1406 34.8672 37.5625C34.263 37.9792 33.5052 38.1875 32.5938 38.1875C31.151 38.1875 30.0833 37.7161 29.3906 36.7734C28.8438 36.0182 28.5703 35.0651 28.5703 33.9141C28.5703 32.5391 28.9297 31.4635 29.6484 30.6875C30.3672 29.9062 31.276 29.5156 32.375 29.5156C33.6094 29.5156 34.5833 29.9245 35.2969 30.7422C36.0104 31.5547 36.3516 32.8021 36.3203 34.4844H30.8203C30.8359 35.1354 31.013 35.6432 31.3516 36.0078C31.6901 36.3672 32.112 36.5469 32.6172 36.5469C32.9609 36.5469 33.25 36.4531 33.4844 36.2656C33.7188 36.0781 33.8958 35.776 34.0156 35.3594ZM34.1406 33.1406C34.125 32.5052 33.9609 32.0234 33.6484 31.6953C33.3359 31.362 32.9557 31.1953 32.5078 31.1953C32.0286 31.1953 31.6328 31.3698 31.3203 31.7188C31.0078 32.0677 30.8542 32.5417 30.8594 33.1406H34.1406ZM41.9219 35.3594L44.1094 35.7266C43.8281 36.5286 43.3828 37.1406 42.7734 37.5625C42.1693 37.9792 41.4115 38.1875 40.5 38.1875C39.0573 38.1875 37.9896 37.7161 37.2969 36.7734C36.75 36.0182 36.4766 35.0651 36.4766 33.9141C36.4766 32.5391 36.8359 31.4635 37.5547 30.6875C38.2734 29.9062 39.1823 29.5156 40.2812 29.5156C41.5156 29.5156 42.4896 29.9245 43.2031 30.7422C43.9167 31.5547 44.2578 32.8021 44.2266 34.4844H38.7266C38.7422 35.1354 38.9193 35.6432 39.2578 36.0078C39.5964 36.3672 40.0182 36.5469 40.5234 36.5469C40.8672 36.5469 41.1562 36.4531 41.3906 36.2656C41.625 36.0781 41.8021 35.776 41.9219 35.3594ZM42.0469 33.1406C42.0312 32.5052 41.8672 32.0234 41.5547 31.6953C41.2422 31.362 40.862 31.1953 40.4141 31.1953C39.9349 31.1953 39.5391 31.3698 39.2266 31.7188C38.9141 32.0677 38.7604 32.5417 38.7656 33.1406H42.0469ZM44.9609 29.7031H47.0078V30.9219C47.2734 30.5052 47.6328 30.1667 48.0859 29.9062C48.5391 29.6458 49.0417 29.5156 49.5938 29.5156C50.5573 29.5156 51.375 29.8932 52.0469 30.6484C52.7188 31.4036 53.0547 32.4557 53.0547 33.8047C53.0547 35.1901 52.7161 36.2682 52.0391 37.0391C51.362 37.8047 50.5417 38.1875 49.5781 38.1875C49.1198 38.1875 48.7031 38.0964 48.3281 37.9141C47.9583 37.7318 47.5677 37.4193 47.1562 36.9766V41.1562H44.9609V29.7031ZM47.1328 33.7109C47.1328 34.6432 47.3177 35.3333 47.6875 35.7812C48.0573 36.224 48.5078 36.4453 49.0391 36.4453C49.5495 36.4453 49.974 36.2422 50.3125 35.8359C50.651 35.4245 50.8203 34.7526 50.8203 33.8203C50.8203 32.9505 50.6458 32.3047 50.2969 31.8828C49.9479 31.4609 49.5156 31.25 49 31.25C48.4635 31.25 48.0182 31.4583 47.6641 31.875C47.3099 32.2865 47.1328 32.8984 47.1328 33.7109Z" fill="white"/>
</svg>
