<svg width="58" height="58" viewBox="0 0 58 58" fill="none" xmlns="http://www.w3.org/2000/svg">
<rect width="58" height="58" rx="14" fill="#1D1C1C"/>
<path d="M9.088 41C8.768 41 8.608 40.8827 8.608 40.648C8.608 40.456 8.74667 40.328 9.024 40.264L9.76 40.136C10.208 40.0507 10.496 39.9333 10.624 39.784C10.7733 39.6347 10.848 39.336 10.848 38.888V20.072C10.848 19.624 10.7733 19.3253 10.624 19.176C10.496 19.0267 10.208 18.9093 9.76 18.824L9.024 18.696C8.74667 18.632 8.608 18.504 8.608 18.312C8.608 18.0773 8.768 17.96 9.088 17.96H19.84C20.3307 17.96 20.5973 18.2053 20.64 18.696L20.896 24.008C20.9387 24.3707 20.8 24.552 20.48 24.552C20.224 24.552 20.0747 24.4133 20.032 24.136L19.84 22.952C19.6053 21.5013 19.1253 20.4453 18.4 19.784C17.6747 19.1013 16.672 18.76 15.392 18.76C14.5387 18.76 13.9413 18.888 13.6 19.144C13.28 19.3787 13.12 19.8053 13.12 20.424V28.136C13.12 28.4347 13.2693 28.584 13.568 28.584H15.168C16.1067 28.584 16.6827 28.0827 16.896 27.08L17.216 25.48C17.3013 25.16 17.4827 25.0213 17.76 25.064C17.9947 25.1067 18.112 25.288 18.112 25.608V32.808C18.112 33.128 17.9947 33.3093 17.76 33.352C17.4827 33.3947 17.3013 33.256 17.216 32.936L16.896 31.368C16.7467 30.6213 16.5333 30.1307 16.256 29.896C16 29.6613 15.6267 29.544 15.136 29.544H13.568C13.2693 29.544 13.12 29.6933 13.12 29.992V38.024C13.12 38.792 13.312 39.3467 13.696 39.688C14.1013 40.0293 14.8267 40.2 15.872 40.2C16.9387 40.2 17.8453 39.9333 18.592 39.4C19.36 38.8453 19.8933 37.8213 20.192 36.328L20.576 34.44C20.64 34.1627 20.8 34.024 21.056 34.024C21.3547 34.024 21.4827 34.2053 21.44 34.568L21.12 40.264C21.0773 40.7547 20.8107 41 20.32 41H9.088ZM23.3 44.488C23.0867 44.488 22.98 44.3813 22.98 44.168V43.72C22.98 43.5067 23.0867 43.4 23.3 43.4H33.732C33.9453 43.4 34.052 43.5067 34.052 43.72V44.168C34.052 44.3813 33.9453 44.488 33.732 44.488H23.3ZM34.4352 41C34.1152 41 33.9552 40.8933 33.9552 40.68C33.9552 40.4667 34.1046 40.328 34.4032 40.264L34.8833 40.168C35.3099 40.0827 35.6299 39.88 35.8433 39.56C36.0566 39.2187 36.2379 38.7493 36.3873 38.152L41.3473 18.152C41.3899 17.9387 41.4539 17.8 41.5393 17.736C41.6459 17.672 41.7419 17.64 41.8273 17.64C41.9339 17.64 42.0299 17.672 42.1153 17.736C42.2219 17.8 42.2966 17.9387 42.3393 18.152L47.3953 38.44C47.5446 39.0373 47.7153 39.4533 47.9073 39.688C48.0993 39.9227 48.3979 40.0827 48.8033 40.168L49.2833 40.264C49.5819 40.328 49.7313 40.4667 49.7313 40.68C49.7313 40.8933 49.5713 41 49.2513 41H43.7793C43.4806 41 43.3313 40.8827 43.3313 40.648C43.3313 40.4133 43.5126 40.2853 43.8753 40.264L44.4833 40.2C44.8459 40.1573 45.0699 40.04 45.1553 39.848C45.2619 39.656 45.2619 39.3253 45.1553 38.856L43.9392 33.896C43.8113 33.3413 43.4593 33.064 42.8833 33.064H39.5233C38.9686 33.064 38.6166 33.3413 38.4673 33.896L37.3793 38.184C37.0593 39.4 37.3793 40.072 38.3393 40.2L38.8193 40.264C39.1819 40.328 39.3633 40.456 39.3633 40.648C39.3633 40.8827 39.2139 41 38.9153 41H34.4352ZM39.4273 32.104H42.9473C43.2886 32.104 43.4273 31.9227 43.3633 31.56L41.3153 22.984H41.1553L39.0113 31.56C38.9473 31.9227 39.0859 32.104 39.4273 32.104Z" fill="white"/>
</svg>
